# xmcd CD database file
#
# Track frame offsets:
#	150
#	13815
#	24155
#	35455
#	46060
#	58670
#	69120
#	82370
#	94020
#	106935
#	118320
#	131900
#	146055
#	158805
#	171885
#	186375
#	199295
#	211685
#	222775
#	234860
#
# Disc length: 3282 seconds
#
# Revision: 0
# Processed by: cddbd v1.5.2PL0 Copyright (c) Steve Scherf et al.
# Submitted via: CDex 1.70beta2
#
DISCID=1b0cd014
DTITLE=Whitman, Slim - The Singing Cowboys - D1
DYEAR=1900
DGENRE=Country
TTITLE0=Tumbling Tumbleweed
TTITLE1=Rose Marie
TTITLE2=Cattle Call
TTITLE3=Beautiful Dreamer
TTITLE4=Secret Love
TTITLE5=Songs of the Wild
TTITLE6=That Silver Haired Daddy of Mine
TTITLE7=When My Blue Moon Turns To Gold Again
TTITLE8=Blue Eyes Crying In the Rain
TTITLE9=When I Grow Too Old To Dream
TTITLE10=You Have My Heart
TTITLE11=Danny Boy
TTITLE12=North Wind
TTITLE13=Love Song of the Waterfall
TTITLE14=Indian Love Call
TTITLE15=China Doll
TTITLE16=By the Waters of Minnetonka
TTITLE17=Keep It Secret
TTITLE18=There's a Rainbow In Every Tear Drop
TTITLE19=The Singing Hills
EXTD=
EXTT0=
EXTT1=
EXTT2=
EXTT3=
EXTT4=
EXTT5=
EXTT6=
EXTT7=
EXTT8=
EXTT9=
EXTT10=
EXTT11=
EXTT12=
EXTT13=
EXTT14=
EXTT15=
EXTT16=
EXTT17=
EXTT18=
EXTT19=
PLAYORDER=
